<svg xmlns="http://www.w3.org/2000/svg" width="500" height="500" viewBox="0 0 375 375"><defs><clipPath id="a"><path d="M0 0h366v52H0z"/></clipPath></defs><g clip-path="url(#a)" transform="translate(9 162)"><g style="fill:#3862d3;fill-opacity:1"><path d="M5.188-34.937h2.046V0H5.188Zm0 0" style="stroke:none" transform="translate(.997 37.977)"/></g><g style="fill:#3862d3;fill-opacity:1"><path d="M35.484-34.937v36.53a7567 7567 0 0 1-13.828-15.937A31177 31177 0 0 0 7.891-30.297a30 30 0 0 0-.485-.64 15 15 0 0 1-.468-.657q.044.41.062.813.029.393.094.781V0h-2.11v-36.531q6.996 8.144 13.829 16.093 6.843 7.957 13.78 16.047l.47.657q.216.3.468.64-.047-.405-.078-.797-.017-.405-.062-.796v-30.25Zm0 0" style="stroke:none" transform="translate(33.288 37.977)"/></g><g style="fill:#4889c4;fill-opacity:1"><path d="M27.594-34.937v2H14.828V0h-2.047v-32.937H0v-2Zm0 0" style="stroke:none" transform="translate(93.783 37.977)"/></g><g style="fill:#fff;fill-opacity:1"><path d="M4.234 0v-34.937h20.72v2H6.28v14.328H23v1.984H6.281V-2h19.375v2Zm0 0" style="stroke:none" transform="translate(141.299 37.977)"/></g><g style="fill:#56abb8;fill-opacity:1"><path d="M4.234 0v-34.937h2.047V-2h19.375v2Zm0 0" style="stroke:none" transform="translate(191.22 37.977)"/></g><g style="fill:#56abb8;fill-opacity:1"><path d="M4.234 0v-34.937h2.047V-2h19.375v2Zm0 0" style="stroke:none" transform="translate(240.73 37.977)"/></g><g style="fill:#66d2a9;fill-opacity:1"><path d="M5.188-34.937h2.046V0H5.188Zm0 0" style="stroke:none" transform="translate(290.245 37.977)"/></g><g style="fill:#66d2a9;fill-opacity:1"><path d="M28.844-3.797 30-2.094a20.6 20.6 0 0 1-4.281 1.828 17 17 0 0 1-4.813.672c-2.46 0-4.773-.46-6.937-1.39-2.156-.938-4.043-2.211-5.656-3.828-1.618-1.614-2.891-3.5-3.829-5.657-.93-2.164-1.39-4.484-1.39-6.953 0-2.457.46-4.773 1.39-6.953.938-2.176 2.211-4.07 3.829-5.687q2.42-2.42 5.656-3.844 3.246-1.42 6.937-1.422 2.545 0 4.813.656 2.278.645 4.328 1.828-.298.41-.578.86-.284.44-.578.843a15.6 15.6 0 0 0-3.766-1.625 15.3 15.3 0 0 0-4.219-.578q-3.236.002-6.11 1.282a16.1 16.1 0 0 0-5.015 3.437 16.1 16.1 0 0 0-3.375 5.078q-1.218 2.893-1.218 6.172 0 3.252 1.218 6.125a16 16 0 0 0 3.375 5.016 16.2 16.2 0 0 0 4.953 3.39q2.825 1.252 6.079 1.25 2.249.001 4.234-.578a16.6 16.6 0 0 0 3.797-1.625m0 0" style="stroke:none" transform="translate(322.536 37.977)"/></g><path d="M0 1.002h21.789" style="fill:none;stroke-width:2;stroke-linecap:butt;stroke-linejoin:miter;stroke:#4789c3;stroke-opacity:1;stroke-miterlimit:4" transform="translate(149.7 36.146)scale(.8605)"/><path d="M0 1h21.789" style="fill:none;stroke-width:2;stroke-linecap:butt;stroke-linejoin:miter;stroke:#4789c3;stroke-opacity:1;stroke-miterlimit:4" transform="translate(149.7 19.452)scale(.8605)"/><path d="M0 1.002h21.789" style="fill:none;stroke-width:2;stroke-linecap:butt;stroke-linejoin:miter;stroke:#4789c3;stroke-opacity:1;stroke-miterlimit:4" transform="translate(149.7 3.103)scale(.8605)"/></g></svg>