<svg xmlns="http://www.w3.org/2000/svg" xmlns:xlink="http://www.w3.org/1999/xlink" width="675" zoomAndPan="magnify" viewBox="0 0 506.25 453.749987" height="605" preserveAspectRatio="xMidYMid meet" version="1.2"><defs><clipPath id="4e42989942"><rect x="0" width="69" y="0" height="29"/></clipPath><clipPath id="998a1518d2"><rect x="0" width="133" y="0" height="29"/></clipPath><clipPath id="2ec29151e7"><path d="M 0.835938 0.269531 L 125 0.269531 L 125 286 L 0.835938 286 Z M 0.835938 0.269531 "/></clipPath><clipPath id="718123ed70"><rect x="0" width="125" y="0" height="286"/></clipPath><clipPath id="f704a6fcd5"><path d="M 74 0.269531 L 268 0.269531 L 268 286 L 74 286 Z M 74 0.269531 "/></clipPath><clipPath id="12b922eb7d"><rect x="0" width="194" y="0" height="286"/></clipPath><clipPath id="4777907c73"><path d="M 165 31 L 308.296875 31 L 308.296875 316.121094 L 165 316.121094 Z M 165 31 "/></clipPath><clipPath id="5f59627cb8"><rect x="0" width="144" y="0" height="286"/></clipPath><clipPath id="66d86cca9b"><rect x="0" width="57" y="0" height="19"/></clipPath><clipPath id="c55fbb20a4"><rect x="0" width="309" y="0" height="317"/></clipPath></defs><g id="5076d5bba9"><g transform="matrix(1,0,0,1,84,68)"><g clip-path="url(#c55fbb20a4)"><path style="fill:none;stroke-width:2;stroke-linecap:butt;stroke-linejoin:miter;stroke:#000000;stroke-opacity:1;stroke-miterlimit:4;" d="M -0.000852182 0.995479 L 183.083904 0.995479 " transform="matrix(0.31084,-0.000000000000000385,0.000000000000000385,0.31084,49.937765,257.20619)"/><g transform="matrix(1,0,0,1,169,261)"><g id="c032b69a47" clip-path="url(#4e42989942)"><g style="fill:#00688f;fill-opacity:1;"><g transform="translate(0.303992, 21.83469)"><path style="stroke:none" d="M 8 0.203125 C 6.457031 0.203125 5.179688 -0.109375 4.171875 -0.734375 C 3.171875 -1.367188 2.425781 -2.253906 1.9375 -3.390625 C 1.445312 -4.523438 1.203125 -5.851562 1.203125 -7.375 C 1.203125 -8.90625 1.460938 -10.234375 1.984375 -11.359375 C 2.503906 -12.492188 3.269531 -13.367188 4.28125 -13.984375 C 5.300781 -14.609375 6.546875 -14.921875 8.015625 -14.921875 C 9.503906 -14.921875 10.597656 -14.691406 11.296875 -14.234375 C 11.992188 -13.785156 12.34375 -13.242188 12.34375 -12.609375 C 12.34375 -12.222656 12.242188 -11.929688 12.046875 -11.734375 C 11.847656 -11.535156 11.515625 -11.421875 11.046875 -11.390625 C 11.046875 -12.566406 10.820312 -13.414062 10.375 -13.9375 C 9.925781 -14.457031 9.113281 -14.71875 7.9375 -14.71875 C 6.1875 -14.71875 4.875 -14.125 4 -12.9375 C 3.132812 -11.75 2.703125 -9.894531 2.703125 -7.375 C 2.703125 -4.875 3.132812 -3.019531 4 -1.8125 C 4.863281 -0.601562 6.289062 0 8.28125 0 C 8.75 0 9.21875 -0.0351562 9.6875 -0.109375 C 10.15625 -0.191406 10.546875 -0.289062 10.859375 -0.40625 L 10.859375 -4.78125 C 10.859375 -5.394531 10.75 -5.835938 10.53125 -6.109375 C 10.320312 -6.378906 9.953125 -6.515625 9.421875 -6.515625 L 9.0625 -6.515625 L 9.0625 -6.71875 L 13.78125 -6.71875 L 13.78125 -6.515625 L 13.5625 -6.515625 C 13.039062 -6.515625 12.691406 -6.398438 12.515625 -6.171875 C 12.347656 -5.941406 12.265625 -5.515625 12.265625 -4.890625 L 12.265625 -0.640625 C 11.628906 -0.347656 10.972656 -0.132812 10.296875 0 C 9.628906 0.132812 8.863281 0.203125 8 0.203125 Z M 8 0.203125 "/></g></g><g style="fill:#00688f;fill-opacity:1;"><g transform="translate(14.356518, 21.83469)"><path style="stroke:none" d="M 0.890625 0 L 0.890625 -0.203125 L 1.4375 -0.203125 C 1.976562 -0.203125 2.351562 -0.316406 2.5625 -0.546875 C 2.78125 -0.773438 2.890625 -1.203125 2.890625 -1.828125 L 2.890625 -12.921875 C 2.890625 -13.523438 2.78125 -13.941406 2.5625 -14.171875 C 2.351562 -14.398438 1.976562 -14.515625 1.4375 -14.515625 L 0.890625 -14.515625 L 0.890625 -14.71875 L 5.8125 -14.71875 C 7.570312 -14.71875 8.859375 -14.40625 9.671875 -13.78125 C 10.492188 -13.164062 10.90625 -12.210938 10.90625 -10.921875 C 10.90625 -10.128906 10.75 -9.460938 10.4375 -8.921875 C 10.125 -8.390625 9.71875 -7.960938 9.21875 -7.640625 C 8.726562 -7.328125 8.195312 -7.097656 7.625 -6.953125 L 10.796875 -2.125 C 11.304688 -1.351562 11.707031 -0.835938 12 -0.578125 C 12.300781 -0.328125 12.609375 -0.203125 12.921875 -0.203125 L 13.0625 -0.203125 L 13.0625 0 L 12.859375 0 C 12.140625 0 11.582031 -0.046875 11.1875 -0.140625 C 10.800781 -0.234375 10.472656 -0.414062 10.203125 -0.6875 C 9.941406 -0.957031 9.65625 -1.335938 9.34375 -1.828125 L 6.125 -6.828125 L 4.28125 -6.828125 L 4.28125 -1.828125 C 4.28125 -1.203125 4.382812 -0.773438 4.59375 -0.546875 C 4.8125 -0.316406 5.191406 -0.203125 5.734375 -0.203125 L 6.265625 -0.203125 L 6.265625 0 Z M 4.28125 -7.03125 L 6.03125 -7.03125 C 7.132812 -7.03125 7.976562 -7.332031 8.5625 -7.9375 C 9.144531 -8.550781 9.4375 -9.507812 9.4375 -10.8125 C 9.4375 -12.09375 9.175781 -13.03125 8.65625 -13.625 C 8.132812 -14.21875 7.207031 -14.515625 5.875 -14.515625 L 4.28125 -14.515625 Z M 4.28125 -7.03125 "/></g></g><g style="fill:#00688f;fill-opacity:1;"><g transform="translate(27.27578, 21.83469)"><path style="stroke:none" d="M 7.375 0.203125 C 5.988281 0.203125 4.832031 -0.101562 3.90625 -0.71875 C 2.988281 -1.34375 2.300781 -2.21875 1.84375 -3.34375 C 1.394531 -4.476562 1.171875 -5.832031 1.171875 -7.40625 C 1.171875 -8.957031 1.398438 -10.296875 1.859375 -11.421875 C 2.328125 -12.546875 3.019531 -13.410156 3.9375 -14.015625 C 4.851562 -14.628906 6.007812 -14.9375 7.40625 -14.9375 C 9.476562 -14.9375 11.023438 -14.257812 12.046875 -12.90625 C 13.066406 -11.550781 13.578125 -9.707031 13.578125 -7.375 C 13.578125 -5.851562 13.347656 -4.523438 12.890625 -3.390625 C 12.441406 -2.253906 11.753906 -1.367188 10.828125 -0.734375 C 9.910156 -0.109375 8.757812 0.203125 7.375 0.203125 Z M 7.375 0 C 9.019531 0 10.210938 -0.601562 10.953125 -1.8125 C 11.691406 -3.03125 12.0625 -4.882812 12.0625 -7.375 C 12.0625 -9.863281 11.695312 -11.710938 10.96875 -12.921875 C 10.25 -14.128906 9.0625 -14.734375 7.40625 -14.734375 C 5.789062 -14.734375 4.597656 -14.128906 3.828125 -12.921875 C 3.054688 -11.710938 2.671875 -9.863281 2.671875 -7.375 C 2.671875 -4.882812 3.054688 -3.03125 3.828125 -1.8125 C 4.597656 -0.601562 5.78125 0 7.375 0 Z M 7.375 0 "/></g></g><g style="fill:#00688f;fill-opacity:1;"><g transform="translate(42.049471, 21.83469)"><path style="stroke:none" d="M 7.25 0.203125 C 5.71875 0.203125 4.503906 -0.148438 3.609375 -0.859375 C 2.710938 -1.566406 2.265625 -2.757812 2.265625 -4.4375 L 2.265625 -12.921875 C 2.265625 -13.523438 2.15625 -13.941406 1.9375 -14.171875 C 1.726562 -14.398438 1.359375 -14.515625 0.828125 -14.515625 L 0.28125 -14.515625 L 0.28125 -14.71875 L 5.640625 -14.71875 L 5.640625 -14.515625 L 5.109375 -14.515625 C 4.554688 -14.515625 4.175781 -14.398438 3.96875 -14.171875 C 3.769531 -13.941406 3.671875 -13.507812 3.671875 -12.875 L 3.671875 -4.328125 C 3.671875 -3.285156 3.828125 -2.453125 4.140625 -1.828125 C 4.453125 -1.210938 4.890625 -0.769531 5.453125 -0.5 C 6.023438 -0.238281 6.679688 -0.109375 7.421875 -0.109375 C 8.773438 -0.109375 9.851562 -0.457031 10.65625 -1.15625 C 11.46875 -1.863281 11.875 -2.875 11.875 -4.1875 L 11.875 -12.921875 C 11.875 -13.523438 11.765625 -13.941406 11.546875 -14.171875 C 11.335938 -14.398438 10.957031 -14.515625 10.40625 -14.515625 L 9.890625 -14.515625 L 9.890625 -14.71875 L 14.03125 -14.71875 L 14.03125 -14.515625 L 13.515625 -14.515625 C 12.972656 -14.515625 12.597656 -14.398438 12.390625 -14.171875 C 12.179688 -13.941406 12.078125 -13.507812 12.078125 -12.875 L 12.078125 -4.140625 C 12.078125 -2.785156 11.648438 -1.722656 10.796875 -0.953125 C 9.941406 -0.179688 8.757812 0.203125 7.25 0.203125 Z M 7.25 0.203125 "/></g></g><g style="fill:#00688f;fill-opacity:1;"><g transform="translate(56.47288, 21.83469)"><path style="stroke:none" d="M 0.890625 0 L 0.890625 -0.203125 L 1.4375 -0.203125 C 1.976562 -0.203125 2.351562 -0.316406 2.5625 -0.546875 C 2.78125 -0.773438 2.890625 -1.203125 2.890625 -1.828125 L 2.890625 -12.921875 C 2.890625 -13.523438 2.78125 -13.941406 2.5625 -14.171875 C 2.351562 -14.398438 1.976562 -14.515625 1.4375 -14.515625 L 0.890625 -14.515625 L 0.890625 -14.71875 L 6.390625 -14.71875 C 8.035156 -14.71875 9.234375 -14.335938 9.984375 -13.578125 C 10.742188 -12.828125 11.125 -11.785156 11.125 -10.453125 C 11.125 -9.609375 10.957031 -8.835938 10.625 -8.140625 C 10.300781 -7.453125 9.757812 -6.898438 9 -6.484375 C 8.25 -6.066406 7.226562 -5.859375 5.9375 -5.859375 L 4.28125 -5.859375 L 4.28125 -1.828125 C 4.28125 -1.203125 4.382812 -0.773438 4.59375 -0.546875 C 4.8125 -0.316406 5.191406 -0.203125 5.734375 -0.203125 L 6.453125 -0.203125 L 6.453125 0 Z M 4.28125 -6.0625 L 5.8125 -6.0625 C 7.25 -6.0625 8.25 -6.441406 8.8125 -7.203125 C 9.382812 -7.960938 9.671875 -9.03125 9.671875 -10.40625 C 9.671875 -11.820312 9.398438 -12.859375 8.859375 -13.515625 C 8.328125 -14.179688 7.441406 -14.515625 6.203125 -14.515625 L 4.28125 -14.515625 Z M 4.28125 -6.0625 "/></g></g></g></g><g transform="matrix(1,0,0,1,32,261)"><g id="2752546cd5" clip-path="url(#998a1518d2)"><g style="fill:#000000;fill-opacity:1;"><g transform="translate(0.687472, 21.83469)"><path style="stroke:none" d="M 3.15625 0 L 3.15625 -0.203125 L 3.890625 -0.203125 C 4.441406 -0.203125 4.820312 -0.316406 5.03125 -0.546875 C 5.25 -0.773438 5.359375 -1.203125 5.359375 -1.828125 L 5.359375 -14.46875 L 2.953125 -14.46875 C 2.140625 -14.46875 1.582031 -14.316406 1.28125 -14.015625 C 0.988281 -13.710938 0.820312 -13.148438 0.78125 -12.328125 L 0.71875 -11.328125 L 0.515625 -11.328125 L 0.640625 -14.71875 L 11.5 -14.71875 L 11.625 -11.328125 L 11.421875 -11.328125 L 11.359375 -12.328125 C 11.316406 -13.148438 11.148438 -13.710938 10.859375 -14.015625 C 10.566406 -14.316406 10.019531 -14.46875 9.21875 -14.46875 L 6.734375 -14.46875 L 6.734375 -1.828125 C 6.734375 -1.203125 6.835938 -0.773438 7.046875 -0.546875 C 7.265625 -0.316406 7.648438 -0.203125 8.203125 -0.203125 L 8.9375 -0.203125 L 8.9375 0 Z M 3.15625 0 "/></g></g><g style="fill:#000000;fill-opacity:1;"><g transform="translate(12.844353, 21.83469)"><path style="stroke:none" d="M 0.90625 0 L 0.90625 -0.203125 L 1.46875 -0.203125 C 2 -0.203125 2.367188 -0.316406 2.578125 -0.546875 C 2.796875 -0.773438 2.90625 -1.203125 2.90625 -1.828125 L 2.90625 -12.921875 C 2.90625 -13.523438 2.796875 -13.941406 2.578125 -14.171875 C 2.367188 -14.398438 2 -14.515625 1.46875 -14.515625 L 0.90625 -14.515625 L 0.90625 -14.71875 L 6.3125 -14.71875 L 6.3125 -14.515625 L 5.75 -14.515625 C 5.195312 -14.515625 4.816406 -14.398438 4.609375 -14.171875 C 4.410156 -13.941406 4.3125 -13.507812 4.3125 -12.875 L 4.3125 -7.796875 L 11.75 -7.796875 L 11.75 -12.875 C 11.75 -13.507812 11.644531 -13.941406 11.4375 -14.171875 C 11.226562 -14.398438 10.851562 -14.515625 10.3125 -14.515625 L 9.75 -14.515625 L 9.75 -14.71875 L 15.140625 -14.71875 L 15.140625 -14.515625 L 14.59375 -14.515625 C 14.050781 -14.515625 13.675781 -14.398438 13.46875 -14.171875 C 13.257812 -13.941406 13.15625 -13.523438 13.15625 -12.921875 L 13.15625 -1.828125 C 13.15625 -1.203125 13.257812 -0.773438 13.46875 -0.546875 C 13.675781 -0.316406 14.050781 -0.203125 14.59375 -0.203125 L 15.140625 -0.203125 L 15.140625 0 L 9.75 0 L 9.75 -0.203125 L 10.3125 -0.203125 C 10.851562 -0.203125 11.226562 -0.316406 11.4375 -0.546875 C 11.644531 -0.773438 11.75 -1.203125 11.75 -1.828125 L 11.75 -7.578125 L 4.3125 -7.578125 L 4.3125 -1.828125 C 4.3125 -1.203125 4.410156 -0.773438 4.609375 -0.546875 C 4.816406 -0.316406 5.195312 -0.203125 5.75 -0.203125 L 6.3125 -0.203125 L 6.3125 0 Z M 0.90625 0 "/></g></g><g style="fill:#000000;fill-opacity:1;"><g transform="translate(28.874947, 21.83469)"><path style="stroke:none" d="M 0.890625 0 L 0.890625 -0.203125 L 1.4375 -0.203125 C 1.976562 -0.203125 2.351562 -0.316406 2.5625 -0.546875 C 2.78125 -0.773438 2.890625 -1.203125 2.890625 -1.828125 L 2.890625 -12.921875 C 2.890625 -13.523438 2.78125 -13.941406 2.5625 -14.171875 C 2.351562 -14.398438 1.976562 -14.515625 1.4375 -14.515625 L 0.890625 -14.515625 L 0.890625 -14.71875 L 10.671875 -14.71875 L 10.796875 -11.21875 L 10.59375 -11.21875 L 10.53125 -12.390625 C 10.488281 -13.203125 10.320312 -13.757812 10.03125 -14.0625 C 9.75 -14.363281 9.203125 -14.515625 8.390625 -14.515625 L 4.28125 -14.515625 L 4.28125 -7.8125 L 9.390625 -7.8125 L 9.390625 -7.609375 L 4.28125 -7.609375 L 4.28125 -0.203125 L 8.984375 -0.203125 C 9.835938 -0.203125 10.414062 -0.351562 10.71875 -0.65625 C 11.019531 -0.957031 11.191406 -1.515625 11.234375 -2.328125 L 11.296875 -3.5 L 11.5 -3.5 L 11.359375 0 Z M 0.890625 0 "/></g></g><g style="fill:#000000;fill-opacity:1;"><g transform="translate(41.361506, 21.83469)"><path style="stroke:none" d=""/></g></g><g style="fill:#000000;fill-opacity:1;"><g transform="translate(45.9976, 21.83469)"><path style="stroke:none" d="M 0.890625 0 L 0.890625 -0.203125 L 1.734375 -0.203125 C 2.265625 -0.203125 2.632812 -0.316406 2.84375 -0.546875 C 3.0625 -0.773438 3.171875 -1.203125 3.171875 -1.828125 L 3.171875 -12.921875 C 3.171875 -13.523438 3.0625 -13.941406 2.84375 -14.171875 C 2.632812 -14.398438 2.265625 -14.515625 1.734375 -14.515625 L 0.890625 -14.515625 L 0.890625 -14.71875 L 4.28125 -14.71875 L 9.6875 -1.546875 L 14.671875 -14.71875 L 17.828125 -14.71875 L 17.828125 -14.515625 L 17.3125 -14.515625 C 16.757812 -14.515625 16.378906 -14.398438 16.171875 -14.171875 C 15.972656 -13.941406 15.875 -13.507812 15.875 -12.875 L 15.875 -1.828125 C 15.875 -1.203125 15.972656 -0.773438 16.171875 -0.546875 C 16.378906 -0.316406 16.757812 -0.203125 17.3125 -0.203125 L 17.828125 -0.203125 L 17.828125 0 L 12.640625 0 L 12.640625 -0.203125 L 13.1875 -0.203125 C 13.65625 -0.203125 13.992188 -0.316406 14.203125 -0.546875 C 14.410156 -0.773438 14.515625 -1.203125 14.515625 -1.828125 L 14.515625 -13.703125 L 9.34375 0 L 8.90625 0 L 3.375 -13.5 L 3.375 -1.828125 C 3.375 -1.203125 3.476562 -0.773438 3.6875 -0.546875 C 3.90625 -0.316406 4.289062 -0.203125 4.84375 -0.203125 L 5.34375 -0.203125 L 5.34375 0 Z M 0.890625 0 "/></g></g><g style="fill:#000000;fill-opacity:1;"><g transform="translate(65.036502, 21.83469)"><path style="stroke:none" d="M -0.046875 0 L -0.046875 -0.203125 L 0.46875 -0.203125 C 0.925781 -0.203125 1.25 -0.285156 1.4375 -0.453125 C 1.632812 -0.628906 1.828125 -0.988281 2.015625 -1.53125 L 6.59375 -14.71875 L 7.25 -14.71875 L 12.21875 -1.25 C 12.375 -0.832031 12.53125 -0.550781 12.6875 -0.40625 C 12.84375 -0.269531 13.109375 -0.203125 13.484375 -0.203125 L 13.8125 -0.203125 L 13.8125 0 L 8.78125 0 L 8.78125 -0.203125 L 9.390625 -0.203125 C 9.921875 -0.203125 10.273438 -0.253906 10.453125 -0.359375 C 10.628906 -0.472656 10.71875 -0.660156 10.71875 -0.921875 C 10.71875 -1.109375 10.675781 -1.34375 10.59375 -1.625 C 10.507812 -1.914062 10.429688 -2.15625 10.359375 -2.34375 L 9.28125 -5.34375 L 3.59375 -5.34375 L 2.5625 -2.4375 C 2.5 -2.238281 2.421875 -1.992188 2.328125 -1.703125 C 2.242188 -1.421875 2.203125 -1.191406 2.203125 -1.015625 C 2.203125 -0.722656 2.316406 -0.515625 2.546875 -0.390625 C 2.773438 -0.265625 3.210938 -0.203125 3.859375 -0.203125 L 4.640625 -0.203125 L 4.640625 0 Z M 3.640625 -5.546875 L 9.21875 -5.546875 L 7.625 -9.953125 C 7.40625 -10.585938 7.179688 -11.226562 6.953125 -11.875 C 6.722656 -12.53125 6.535156 -13.109375 6.390625 -13.609375 C 6.253906 -13.140625 6.078125 -12.601562 5.859375 -12 C 5.648438 -11.394531 5.445312 -10.800781 5.25 -10.21875 Z M 3.640625 -5.546875 "/></g></g><g style="fill:#000000;fill-opacity:1;"><g transform="translate(79.006606, 21.83469)"><path style="stroke:none" d="M 3.15625 0 L 3.15625 -0.203125 L 3.890625 -0.203125 C 4.441406 -0.203125 4.820312 -0.316406 5.03125 -0.546875 C 5.25 -0.773438 5.359375 -1.203125 5.359375 -1.828125 L 5.359375 -14.46875 L 2.953125 -14.46875 C 2.140625 -14.46875 1.582031 -14.316406 1.28125 -14.015625 C 0.988281 -13.710938 0.820312 -13.148438 0.78125 -12.328125 L 0.71875 -11.328125 L 0.515625 -11.328125 L 0.640625 -14.71875 L 11.5 -14.71875 L 11.625 -11.328125 L 11.421875 -11.328125 L 11.359375 -12.328125 C 11.316406 -13.148438 11.148438 -13.710938 10.859375 -14.015625 C 10.566406 -14.316406 10.019531 -14.46875 9.21875 -14.46875 L 6.734375 -14.46875 L 6.734375 -1.828125 C 6.734375 -1.203125 6.835938 -0.773438 7.046875 -0.546875 C 7.265625 -0.316406 7.648438 -0.203125 8.203125 -0.203125 L 8.9375 -0.203125 L 8.9375 0 Z M 3.15625 0 "/></g></g><g style="fill:#000000;fill-opacity:1;"><g transform="translate(91.163487, 21.83469)"><path style="stroke:none" d="M 0.890625 0 L 0.890625 -0.203125 L 1.4375 -0.203125 C 1.976562 -0.203125 2.351562 -0.316406 2.5625 -0.546875 C 2.78125 -0.773438 2.890625 -1.203125 2.890625 -1.828125 L 2.890625 -12.921875 C 2.890625 -13.523438 2.78125 -13.941406 2.5625 -14.171875 C 2.351562 -14.398438 1.976562 -14.515625 1.4375 -14.515625 L 0.890625 -14.515625 L 0.890625 -14.71875 L 10.671875 -14.71875 L 10.796875 -11.21875 L 10.59375 -11.21875 L 10.53125 -12.390625 C 10.488281 -13.203125 10.320312 -13.757812 10.03125 -14.0625 C 9.75 -14.363281 9.203125 -14.515625 8.390625 -14.515625 L 4.28125 -14.515625 L 4.28125 -7.8125 L 9.390625 -7.8125 L 9.390625 -7.609375 L 4.28125 -7.609375 L 4.28125 -0.203125 L 8.984375 -0.203125 C 9.835938 -0.203125 10.414062 -0.351562 10.71875 -0.65625 C 11.019531 -0.957031 11.191406 -1.515625 11.234375 -2.328125 L 11.296875 -3.5 L 11.5 -3.5 L 11.359375 0 Z M 0.890625 0 "/></g></g><g style="fill:#000000;fill-opacity:1;"><g transform="translate(103.650045, 21.83469)"><path style="stroke:none" d="M 0.890625 0 L 0.890625 -0.203125 L 1.4375 -0.203125 C 1.976562 -0.203125 2.351562 -0.316406 2.5625 -0.546875 C 2.78125 -0.773438 2.890625 -1.203125 2.890625 -1.828125 L 2.890625 -12.921875 C 2.890625 -13.523438 2.78125 -13.941406 2.5625 -14.171875 C 2.351562 -14.398438 1.976562 -14.515625 1.4375 -14.515625 L 0.890625 -14.515625 L 0.890625 -14.71875 L 6.28125 -14.71875 L 6.28125 -14.515625 L 5.734375 -14.515625 C 5.191406 -14.515625 4.8125 -14.398438 4.59375 -14.171875 C 4.382812 -13.941406 4.28125 -13.507812 4.28125 -12.875 L 4.28125 -5.765625 L 9.875 -12.21875 C 10.300781 -12.726562 10.597656 -13.101562 10.765625 -13.34375 C 10.941406 -13.59375 11.03125 -13.8125 11.03125 -14 C 11.03125 -14.195312 10.898438 -14.328125 10.640625 -14.390625 C 10.378906 -14.453125 9.953125 -14.484375 9.359375 -14.484375 L 9.359375 -14.71875 L 13.3125 -14.71875 L 13.3125 -14.484375 C 13 -14.484375 12.710938 -14.429688 12.453125 -14.328125 C 12.191406 -14.222656 11.910156 -14.035156 11.609375 -13.765625 C 11.316406 -13.492188 10.941406 -13.097656 10.484375 -12.578125 L 7.09375 -8.65625 L 11.890625 -2.375 C 12.367188 -1.769531 12.742188 -1.3125 13.015625 -1 C 13.296875 -0.6875 13.53125 -0.472656 13.71875 -0.359375 C 13.914062 -0.253906 14.128906 -0.203125 14.359375 -0.203125 L 14.421875 -0.203125 L 14.421875 0 L 14.078125 0 C 13.441406 0 12.9375 -0.0507812 12.5625 -0.15625 C 12.1875 -0.257812 11.847656 -0.453125 11.546875 -0.734375 C 11.242188 -1.023438 10.878906 -1.441406 10.453125 -1.984375 L 6.15625 -7.609375 L 4.28125 -5.421875 L 4.28125 -1.828125 C 4.28125 -1.203125 4.382812 -0.773438 4.59375 -0.546875 C 4.8125 -0.316406 5.191406 -0.203125 5.734375 -0.203125 L 6.3125 -0.203125 L 6.3125 0 Z M 0.890625 0 "/></g></g><g style="fill:#000000;fill-opacity:1;"><g transform="translate(117.681969, 21.83469)"><path style="stroke:none" d="M -0.046875 0 L -0.046875 -0.203125 L 0.46875 -0.203125 C 0.925781 -0.203125 1.25 -0.285156 1.4375 -0.453125 C 1.632812 -0.628906 1.828125 -0.988281 2.015625 -1.53125 L 6.59375 -14.71875 L 7.25 -14.71875 L 12.21875 -1.25 C 12.375 -0.832031 12.53125 -0.550781 12.6875 -0.40625 C 12.84375 -0.269531 13.109375 -0.203125 13.484375 -0.203125 L 13.8125 -0.203125 L 13.8125 0 L 8.78125 0 L 8.78125 -0.203125 L 9.390625 -0.203125 C 9.921875 -0.203125 10.273438 -0.253906 10.453125 -0.359375 C 10.628906 -0.472656 10.71875 -0.660156 10.71875 -0.921875 C 10.71875 -1.109375 10.675781 -1.34375 10.59375 -1.625 C 10.507812 -1.914062 10.429688 -2.15625 10.359375 -2.34375 L 9.28125 -5.34375 L 3.59375 -5.34375 L 2.5625 -2.4375 C 2.5 -2.238281 2.421875 -1.992188 2.328125 -1.703125 C 2.242188 -1.421875 2.203125 -1.191406 2.203125 -1.015625 C 2.203125 -0.722656 2.316406 -0.515625 2.546875 -0.390625 C 2.773438 -0.265625 3.210938 -0.203125 3.859375 -0.203125 L 4.640625 -0.203125 L 4.640625 0 Z M 3.640625 -5.546875 L 9.21875 -5.546875 L 7.625 -9.953125 C 7.40625 -10.585938 7.179688 -11.226562 6.953125 -11.875 C 6.722656 -12.53125 6.535156 -13.109375 6.390625 -13.609375 C 6.253906 -13.140625 6.078125 -12.601562 5.859375 -12 C 5.648438 -11.394531 5.445312 -10.800781 5.25 -10.21875 Z M 3.640625 -5.546875 "/></g></g></g></g><g clip-rule="nonzero" clip-path="url(#2ec29151e7)"><g transform="matrix(1,0,0,1,0.000000000000014211,0.000000000000014211)"><g id="ce99f27388" clip-path="url(#718123ed70)"><g style="fill:#000000;fill-opacity:1;"><g transform="translate(1.060117, 223.284342)"><path style="stroke:none" d="M 32.015625 0 L 32.015625 -2.09375 L 39.546875 -2.09375 C 45.128906 -2.09375 49 -3.242188 51.15625 -5.546875 C 53.320312 -7.847656 54.40625 -12.207031 54.40625 -18.625 L 54.40625 -146.890625 L 29.921875 -146.890625 C 21.691406 -146.890625 16.078125 -145.351562 13.078125 -142.28125 C 10.078125 -139.21875 8.367188 -133.5 7.953125 -125.125 L 7.328125 -115.09375 L 5.234375 -115.09375 L 6.484375 -149.40625 L 116.765625 -149.40625 L 118.015625 -115.09375 L 115.921875 -115.09375 L 115.296875 -125.125 C 114.878906 -133.5 113.203125 -139.21875 110.265625 -142.28125 C 107.335938 -145.351562 101.757812 -146.890625 93.53125 -146.890625 L 68.421875 -146.890625 L 68.421875 -18.625 C 68.421875 -12.207031 69.5 -7.847656 71.65625 -5.546875 C 73.820312 -3.242188 77.695312 -2.09375 83.28125 -2.09375 L 90.8125 -2.09375 L 90.8125 0 Z M 32.015625 0 "/></g></g></g></g></g><g clip-rule="nonzero" clip-path="url(#f704a6fcd5)"><g transform="matrix(1,0,0,1,74,0.000000000000014211)"><g id="0ba27aac05" clip-path="url(#12b922eb7d)"><g style="fill:#000000;fill-opacity:1;"><g transform="translate(0.219091, 223.284342)"><path style="stroke:none" d="M 9 0 L 9 -2.09375 L 17.578125 -2.09375 C 23.015625 -2.09375 26.8125 -3.242188 28.96875 -5.546875 C 31.132812 -7.847656 32.21875 -12.207031 32.21875 -18.625 L 32.21875 -131.203125 C 32.21875 -137.335938 31.132812 -141.554688 28.96875 -143.859375 C 26.8125 -146.160156 23.015625 -147.3125 17.578125 -147.3125 L 9 -147.3125 L 9 -149.40625 L 43.53125 -149.40625 L 98.34375 -15.6875 L 148.984375 -149.40625 L 181 -149.40625 L 181 -147.3125 L 175.765625 -147.3125 C 170.191406 -147.3125 166.359375 -146.160156 164.265625 -143.859375 C 162.171875 -141.554688 161.125 -137.195312 161.125 -130.78125 L 161.125 -18.625 C 161.125 -12.207031 162.171875 -7.847656 164.265625 -5.546875 C 166.359375 -3.242188 170.191406 -2.09375 175.765625 -2.09375 L 181 -2.09375 L 181 0 L 128.265625 0 L 128.265625 -2.09375 L 133.921875 -2.09375 C 138.660156 -2.09375 142.078125 -3.242188 144.171875 -5.546875 C 146.265625 -7.847656 147.3125 -12.207031 147.3125 -18.625 L 147.3125 -139.15625 L 94.796875 0 L 90.390625 0 L 34.3125 -137.0625 L 34.3125 -18.625 C 34.3125 -12.207031 35.390625 -7.847656 37.546875 -5.546875 C 39.710938 -3.242188 43.585938 -2.09375 49.171875 -2.09375 L 54.203125 -2.09375 L 54.203125 0 Z M 9 0 "/></g></g></g></g></g><g clip-rule="nonzero" clip-path="url(#4777907c73)"><g transform="matrix(1,0,0,1,165,31)"><g id="12aef3ada2" clip-path="url(#5f59627cb8)"><g style="fill:#00688f;fill-opacity:1;"><g transform="translate(0.254893, 223.176178)"><path style="stroke:none" d="M 81.328125 2.09375 C 65.679688 2.09375 52.753906 -1.117188 42.546875 -7.546875 C 32.347656 -13.972656 24.734375 -22.953125 19.703125 -34.484375 C 14.671875 -46.015625 12.15625 -59.535156 12.15625 -75.046875 C 12.15625 -90.554688 14.8125 -104.070312 20.125 -115.59375 C 25.4375 -127.125 33.257812 -136.03125 43.59375 -142.3125 C 53.9375 -148.601562 66.582031 -151.75 81.53125 -151.75 C 96.625 -151.75 107.734375 -149.441406 114.859375 -144.828125 C 121.992188 -140.222656 125.5625 -134.707031 125.5625 -128.28125 C 125.5625 -124.363281 124.546875 -121.390625 122.515625 -119.359375 C 120.492188 -117.335938 117.101562 -116.1875 112.34375 -115.90625 C 112.34375 -127.789062 110.070312 -136.382812 105.53125 -141.6875 C 100.988281 -147 92.710938 -149.65625 80.703125 -149.65625 C 62.953125 -149.65625 49.640625 -143.613281 40.765625 -131.53125 C 31.890625 -119.445312 27.453125 -100.617188 27.453125 -75.046875 C 27.453125 -49.609375 31.851562 -30.738281 40.65625 -18.4375 C 49.46875 -6.144531 64.003906 0 84.265625 0 C 89.015625 0 93.765625 -0.382812 98.515625 -1.15625 C 103.265625 -1.925781 107.25 -2.9375 110.46875 -4.1875 L 110.46875 -48.625 C 110.46875 -54.914062 109.382812 -59.421875 107.21875 -62.140625 C 105.050781 -64.867188 101.242188 -66.234375 95.796875 -66.234375 L 92.234375 -66.234375 L 92.234375 -68.328125 L 140.234375 -68.328125 L 140.234375 -66.234375 L 137.921875 -66.234375 C 132.609375 -66.234375 129.078125 -65.078125 127.328125 -62.765625 C 125.585938 -60.460938 124.71875 -56.097656 124.71875 -49.671875 L 124.71875 -6.5 C 118.289062 -3.5625 111.648438 -1.394531 104.796875 0 C 97.953125 1.394531 90.128906 2.09375 81.328125 2.09375 Z M 81.328125 2.09375 "/></g></g></g></g></g><g transform="matrix(1,0,0,1,49,234)"><g id="3f44e6022d" clip-path="url(#66d86cca9b)"><g style="fill:#000000;fill-opacity:1;"><g transform="translate(0.937764, 14.289069)"><path style="stroke:none" d="M 0.578125 0 L 0.578125 -0.140625 L 0.953125 -0.140625 C 1.304688 -0.140625 1.550781 -0.210938 1.6875 -0.359375 C 1.832031 -0.503906 1.90625 -0.789062 1.90625 -1.21875 L 1.90625 -8.53125 C 1.90625 -8.925781 1.832031 -9.195312 1.6875 -9.34375 C 1.550781 -9.5 1.304688 -9.578125 0.953125 -9.578125 L 0.578125 -9.578125 L 0.578125 -9.71875 L 7.046875 -9.71875 L 7.125 -7.40625 L 7 -7.40625 L 6.953125 -8.171875 C 6.921875 -8.710938 6.8125 -9.082031 6.625 -9.28125 C 6.4375 -9.476562 6.070312 -9.578125 5.53125 -9.578125 L 2.828125 -9.578125 L 2.828125 -5.15625 L 6.203125 -5.15625 L 6.203125 -5.015625 L 2.828125 -5.015625 L 2.828125 -0.140625 L 5.9375 -0.140625 C 6.5 -0.140625 6.878906 -0.238281 7.078125 -0.4375 C 7.273438 -0.632812 7.390625 -1 7.421875 -1.53125 L 7.453125 -2.3125 L 7.59375 -2.3125 L 7.5 0 Z M 0.578125 0 "/></g></g><g style="fill:#000000;fill-opacity:1;"><g transform="translate(9.183995, 14.289069)"><path style="stroke:none" d="M 2.859375 0.140625 C 2.140625 0.140625 1.601562 0 1.25 -0.28125 C 0.90625 -0.5625 0.734375 -0.90625 0.734375 -1.3125 C 0.734375 -1.59375 0.800781 -1.785156 0.9375 -1.890625 C 1.070312 -2.003906 1.210938 -2.0625 1.359375 -2.0625 C 1.359375 -1.382812 1.460938 -0.867188 1.671875 -0.515625 C 1.878906 -0.171875 2.28125 0 2.875 0 C 3.382812 0 3.773438 -0.144531 4.046875 -0.4375 C 4.328125 -0.726562 4.46875 -1.125 4.46875 -1.625 C 4.46875 -1.894531 4.421875 -2.117188 4.328125 -2.296875 C 4.242188 -2.484375 4.085938 -2.648438 3.859375 -2.796875 C 3.640625 -2.941406 3.328125 -3.117188 2.921875 -3.328125 C 2.398438 -3.578125 1.988281 -3.8125 1.6875 -4.03125 C 1.382812 -4.25 1.171875 -4.484375 1.046875 -4.734375 C 0.921875 -4.984375 0.859375 -5.273438 0.859375 -5.609375 C 0.859375 -6.171875 1.050781 -6.609375 1.4375 -6.921875 C 1.832031 -7.242188 2.367188 -7.40625 3.046875 -7.40625 C 3.679688 -7.40625 4.15625 -7.269531 4.46875 -7 C 4.789062 -6.726562 4.953125 -6.429688 4.953125 -6.109375 C 4.953125 -5.898438 4.890625 -5.734375 4.765625 -5.609375 C 4.648438 -5.484375 4.484375 -5.421875 4.265625 -5.421875 C 4.265625 -6.117188 4.160156 -6.597656 3.953125 -6.859375 C 3.742188 -7.128906 3.425781 -7.265625 3 -7.265625 C 2.519531 -7.265625 2.160156 -7.140625 1.921875 -6.890625 C 1.691406 -6.648438 1.578125 -6.304688 1.578125 -5.859375 C 1.578125 -5.566406 1.640625 -5.316406 1.765625 -5.109375 C 1.898438 -4.910156 2.097656 -4.734375 2.359375 -4.578125 C 2.617188 -4.421875 2.941406 -4.25 3.328125 -4.0625 C 3.828125 -3.84375 4.210938 -3.628906 4.484375 -3.421875 C 4.753906 -3.210938 4.941406 -2.984375 5.046875 -2.734375 C 5.148438 -2.492188 5.203125 -2.21875 5.203125 -1.90625 C 5.203125 -1.257812 4.988281 -0.753906 4.5625 -0.390625 C 4.132812 -0.0351562 3.566406 0.140625 2.859375 0.140625 Z M 2.859375 0.140625 "/></g></g><g style="fill:#000000;fill-opacity:1;"><g transform="translate(15.035285, 14.289069)"><path style="stroke:none" d="M 3.03125 0.140625 C 2.425781 0.140625 1.984375 -0.015625 1.703125 -0.328125 C 1.429688 -0.640625 1.296875 -1.179688 1.296875 -1.953125 L 1.296875 -7.15625 L 0.25 -7.15625 L 0.25 -7.296875 C 0.820312 -7.296875 1.242188 -7.394531 1.515625 -7.59375 C 1.660156 -7.71875 1.769531 -7.890625 1.84375 -8.109375 C 1.925781 -8.328125 1.988281 -8.609375 2.03125 -8.953125 L 2.15625 -8.953125 L 2.15625 -7.296875 L 3.984375 -7.296875 L 3.984375 -7.15625 L 2.15625 -7.15625 L 2.15625 -1.625 C 2.15625 -1.050781 2.242188 -0.640625 2.421875 -0.390625 C 2.597656 -0.148438 2.867188 -0.03125 3.234375 -0.03125 C 3.472656 -0.03125 3.742188 -0.0703125 4.046875 -0.15625 L 4.046875 -0.015625 C 3.910156 0.0234375 3.75 0.0625 3.5625 0.09375 C 3.382812 0.125 3.207031 0.140625 3.03125 0.140625 Z M 3.03125 0.140625 "/></g></g><g style="fill:#000000;fill-opacity:1;"><g transform="translate(19.416947, 14.289069)"><path style="stroke:none" d="M 1.46875 0.078125 C 1.125 0.078125 0.953125 -0.171875 0.953125 -0.671875 C 0.953125 -1.171875 1.125 -1.421875 1.46875 -1.421875 C 1.820312 -1.421875 2 -1.171875 2 -0.671875 C 2 -0.171875 1.820312 0.078125 1.46875 0.078125 Z M 1.46875 0.078125 "/></g></g><g style="fill:#000000;fill-opacity:1;"><g transform="translate(22.478661, 14.289069)"><path style="stroke:none" d=""/></g></g><g style="fill:#000000;fill-opacity:1;"><g transform="translate(25.540376, 14.289069)"><path style="stroke:none" d="M 0.8125 0 L 0.8125 -0.6875 L 2.953125 -3 C 3.441406 -3.519531 3.84375 -3.976562 4.15625 -4.375 C 4.46875 -4.78125 4.710938 -5.140625 4.890625 -5.453125 C 5.078125 -5.773438 5.207031 -6.085938 5.28125 -6.390625 C 5.351562 -6.703125 5.390625 -7.035156 5.390625 -7.390625 C 5.390625 -8.109375 5.253906 -8.675781 4.984375 -9.09375 C 4.710938 -9.507812 4.253906 -9.71875 3.609375 -9.71875 C 3.003906 -9.71875 2.554688 -9.535156 2.265625 -9.171875 C 1.984375 -8.816406 1.847656 -8.234375 1.859375 -7.421875 C 1.628906 -7.421875 1.4375 -7.472656 1.28125 -7.578125 C 1.132812 -7.691406 1.0625 -7.890625 1.0625 -8.171875 C 1.0625 -8.453125 1.15625 -8.71875 1.34375 -8.96875 C 1.539062 -9.226562 1.828125 -9.441406 2.203125 -9.609375 C 2.585938 -9.773438 3.054688 -9.859375 3.609375 -9.859375 C 4.210938 -9.859375 4.710938 -9.75 5.109375 -9.53125 C 5.515625 -9.320312 5.816406 -9.035156 6.015625 -8.671875 C 6.210938 -8.316406 6.3125 -7.910156 6.3125 -7.453125 C 6.3125 -7.128906 6.257812 -6.816406 6.15625 -6.515625 C 6.0625 -6.210938 5.890625 -5.882812 5.640625 -5.53125 C 5.390625 -5.175781 5.035156 -4.753906 4.578125 -4.265625 C 4.128906 -3.773438 3.550781 -3.179688 2.84375 -2.484375 L 1.0625 -0.75 L 5.4375 -0.75 C 5.820312 -0.75 6.082031 -0.816406 6.21875 -0.953125 C 6.351562 -1.097656 6.4375 -1.367188 6.46875 -1.765625 L 6.484375 -2.0625 L 6.625 -2.0625 L 6.546875 0 Z M 0.8125 0 "/></g></g><g style="fill:#000000;fill-opacity:1;"><g transform="translate(33.147041, 14.289069)"><path style="stroke:none" d="M 3.8125 0.140625 C 2.71875 0.140625 1.921875 -0.289062 1.421875 -1.15625 C 0.929688 -2.03125 0.6875 -3.273438 0.6875 -4.890625 C 0.6875 -6.460938 0.929688 -7.679688 1.421875 -8.546875 C 1.921875 -9.421875 2.722656 -9.859375 3.828125 -9.859375 C 4.890625 -9.859375 5.664062 -9.425781 6.15625 -8.5625 C 6.65625 -7.695312 6.90625 -6.46875 6.90625 -4.875 C 6.90625 -3.289062 6.648438 -2.054688 6.140625 -1.171875 C 5.640625 -0.296875 4.863281 0.140625 3.8125 0.140625 Z M 3.8125 0 C 4.320312 0 4.734375 -0.164062 5.046875 -0.5 C 5.367188 -0.832031 5.597656 -1.351562 5.734375 -2.0625 C 5.878906 -2.769531 5.953125 -3.707031 5.953125 -4.875 C 5.953125 -6.019531 5.882812 -6.945312 5.75 -7.65625 C 5.613281 -8.363281 5.390625 -8.882812 5.078125 -9.21875 C 4.773438 -9.550781 4.359375 -9.71875 3.828125 -9.71875 C 3.273438 -9.71875 2.84375 -9.546875 2.53125 -9.203125 C 2.21875 -8.867188 1.988281 -8.347656 1.84375 -7.640625 C 1.707031 -6.929688 1.640625 -6.007812 1.640625 -4.875 C 1.640625 -3.695312 1.710938 -2.75 1.859375 -2.03125 C 2.003906 -1.320312 2.234375 -0.804688 2.546875 -0.484375 C 2.867188 -0.160156 3.289062 0 3.8125 0 Z M 3.8125 0 "/></g></g><g style="fill:#000000;fill-opacity:1;"><g transform="translate(40.753706, 14.289069)"><path style="stroke:none" d="M 1.53125 0 L 1.53125 -0.140625 L 2.484375 -0.140625 C 2.835938 -0.140625 3.082031 -0.210938 3.21875 -0.359375 C 3.363281 -0.503906 3.4375 -0.789062 3.4375 -1.21875 L 3.4375 -9.109375 C 3.101562 -8.671875 2.828125 -8.332031 2.609375 -8.09375 C 2.398438 -7.863281 2.21875 -7.703125 2.0625 -7.609375 C 1.914062 -7.523438 1.769531 -7.484375 1.625 -7.484375 C 1.4375 -7.484375 1.300781 -7.53125 1.21875 -7.625 C 1.132812 -7.726562 1.09375 -7.859375 1.09375 -8.015625 C 1.59375 -8.046875 2.003906 -8.144531 2.328125 -8.3125 C 2.648438 -8.488281 2.957031 -8.75 3.25 -9.09375 L 3.84375 -9.765625 L 4.375 -9.765625 L 4.375 -1.21875 C 4.375 -0.789062 4.441406 -0.503906 4.578125 -0.359375 C 4.710938 -0.210938 4.960938 -0.140625 5.328125 -0.140625 L 6.109375 -0.140625 L 6.109375 0 Z M 1.53125 0 "/></g></g><g style="fill:#000000;fill-opacity:1;"><g transform="translate(48.360371, 14.289069)"><path style="stroke:none" d="M 3.390625 0.15625 C 2.566406 0.15625 1.957031 0.0078125 1.5625 -0.28125 C 1.175781 -0.582031 0.984375 -0.914062 0.984375 -1.28125 C 0.984375 -1.457031 1.035156 -1.601562 1.140625 -1.71875 C 1.242188 -1.832031 1.398438 -1.890625 1.609375 -1.890625 C 1.609375 -1.203125 1.78125 -0.710938 2.125 -0.421875 C 2.46875 -0.140625 2.921875 0 3.484375 0 C 4.835938 0 5.515625 -0.96875 5.515625 -2.90625 C 5.515625 -3.84375 5.320312 -4.523438 4.9375 -4.953125 C 4.5625 -5.378906 4.035156 -5.59375 3.359375 -5.59375 C 2.910156 -5.59375 2.53125 -5.515625 2.21875 -5.359375 C 1.914062 -5.203125 1.664062 -5.03125 1.46875 -4.84375 L 1.3125 -4.90625 L 1.734375 -9.703125 L 6.046875 -9.703125 L 6.09375 -7.890625 L 5.953125 -7.890625 L 5.953125 -8.140625 C 5.929688 -8.472656 5.851562 -8.6875 5.71875 -8.78125 C 5.59375 -8.875 5.359375 -8.921875 5.015625 -8.921875 L 1.84375 -8.921875 L 1.484375 -5.0625 C 1.742188 -5.3125 2.050781 -5.492188 2.40625 -5.609375 C 2.757812 -5.734375 3.132812 -5.796875 3.53125 -5.796875 C 4.050781 -5.796875 4.53125 -5.691406 4.96875 -5.484375 C 5.414062 -5.285156 5.773438 -4.972656 6.046875 -4.546875 C 6.328125 -4.128906 6.46875 -3.59375 6.46875 -2.9375 C 6.46875 -2.351562 6.359375 -1.832031 6.140625 -1.375 C 5.921875 -0.914062 5.582031 -0.546875 5.125 -0.265625 C 4.675781 0.015625 4.097656 0.15625 3.390625 0.15625 Z M 3.390625 0.15625 "/></g></g></g></g></g></g></g></svg>