<svg xmlns="http://www.w3.org/2000/svg" width="500" height="150" viewBox="0 0 375 112.5"><g style="fill:#000;fill-opacity:1"><path d="M23.188 0v-1.016q1.715-.092 2.593-.39.89-.311 1.188-1.219.311-.903.312-2.719v-25.015q0-1.857-.312-2.735-.299-.89-1.188-1.218-.878-.329-2.593-.376v-1.015q1.169.063 2.937.11 1.764.046 3.469.046 1.967 0 3.687-.047a86 86 0 0 0 2.766-.11v1.017q-1.704.046-2.594.374a1.91 1.91 0 0 0-1.187 1.22q-.299.877-.297 2.734v25.015q-.002 1.816.297 2.719.31.908 1.187 1.219.89.298 2.594.39V0q-1.05-.092-2.766-.125-1.72-.03-3.687-.031-1.705 0-3.469.031A51 51 0 0 0 23.188 0M2.125 0v-1.016q1.7-.092 2.578-.39.89-.311 1.188-1.219.311-.903.312-2.719v-25.015q0-1.857-.312-2.735-.299-.89-1.188-1.218-.879-.329-2.578-.376v-1.015q1.042.063 2.766.11a136 136 0 0 0 7.187 0 106 106 0 0 0 2.89-.11v1.016q-1.704.046-2.593.374a1.91 1.91 0 0 0-1.187 1.22q-.299.877-.297 2.734v25.015q-.002 1.816.297 2.719.31.908 1.187 1.219.89.298 2.594.39V0a50 50 0 0 0-2.89-.125 207 207 0 0 0-7.188 0Q3.168-.092 2.125 0m7-17.453v-1h19.922v1Zm0 0" style="stroke:none" transform="translate(10.452 63.172)"/></g><g style="fill:#000;fill-opacity:1"><path d="M6.61-43.266V9.828H4.593v-53.094Zm0 0" style="stroke:none" transform="translate(48.616 63.172)"/></g><g style="fill:#000;fill-opacity:1"><path d="M41.797-35.703v1.016q-1.722.046-2.594.374a1.91 1.91 0 0 0-1.187 1.22q-.299.877-.297 2.734v25.015q-.002 1.816.297 2.719.31.908 1.187 1.219.872.298 2.594.39V0a50 50 0 0 0-2.906-.125 207 207 0 0 0-7.172 0A43 43 0 0 0 28.937 0v-1.016q1.716-.092 2.594-.39.89-.311 1.188-1.219.311-.903.312-2.719v-27.734l.203.156L20.875.25h-.812L7.358-32.469v26.625q0 1.815.329 2.844Q8.015-1.966 9-1.531q.984.422 2.953.515V0a32 32 0 0 0-2.375-.125q-1.453-.03-2.765-.031-1.267 0-2.563.031Q2.969-.092 2.125 0v-1.016q1.7-.093 2.578-.515.89-.437 1.188-1.469.311-1.029.312-2.844v-24.515q0-1.857-.312-2.735-.299-.89-1.188-1.218-.879-.329-2.578-.376v-1.015a71 71 0 0 0 4.688.156q1.108 0 2.28-.047 1.186-.045 2-.11L22.532-5.546l-.843.406L33.03-35.547h2.36q1.764 0 3.5-.047 1.745-.045 2.906-.11m0 0" style="stroke:none" transform="translate(59.808 63.172)"/></g><g style="fill:#000;fill-opacity:1"><path d="M23.188 0v-1.016q1.715-.092 2.593-.39.89-.311 1.188-1.219.311-.903.312-2.719v-25.015q0-1.857-.312-2.735-.299-.89-1.188-1.218-.878-.329-2.593-.376v-1.015q1.169.063 2.937.11 1.764.046 3.469.046 1.967 0 3.687-.047a86 86 0 0 0 2.766-.11v1.017q-1.704.046-2.594.374a1.91 1.91 0 0 0-1.187 1.22q-.299.877-.297 2.734v25.015q-.002 1.816.297 2.719.31.908 1.187 1.219.89.298 2.594.39V0q-1.05-.092-2.766-.125-1.72-.03-3.687-.031-1.705 0-3.469.031A51 51 0 0 0 23.188 0M2.125 0v-1.016q1.7-.092 2.578-.39.89-.311 1.188-1.219.311-.903.312-2.719v-25.015q0-1.857-.312-2.735-.299-.89-1.188-1.218-.879-.329-2.578-.376v-1.015q1.042.063 2.766.11a136 136 0 0 0 7.187 0 106 106 0 0 0 2.89-.11v1.016q-1.704.046-2.593.374a1.91 1.91 0 0 0-1.187 1.22q-.299.877-.297 2.734v25.015q-.002 1.816.297 2.719.31.908 1.187 1.219.89.298 2.594.39V0a50 50 0 0 0-2.89-.125 207 207 0 0 0-7.188 0Q3.168-.092 2.125 0m7-17.453v-1h19.922v1Zm0 0" style="stroke:none" transform="translate(116.273 63.172)"/></g><g style="fill:#000;fill-opacity:1"><path d="M13.719-26.672q4.436 0 6.922 2.703 2.498 2.69 2.5 8.39H5.344l-.047-.952h13q.107-2.484-.406-4.563-.502-2.092-1.578-3.36-1.08-1.265-2.797-1.265-2.332.002-4.125 2.328-1.784 2.314-2.125 7.36l.14.203a28 28 0 0 0-.156 1.656q-.047.91-.047 1.813c0 2.293.367 4.261 1.11 5.906q1.107 2.471 2.906 3.766 1.793 1.281 3.703 1.28a8.5 8.5 0 0 0 2.875-.484q1.357-.48 2.515-1.593 1.172-1.107 2.032-2.97l1 .407q-.549 1.66-1.813 3.219-1.265 1.563-3.187 2.547-1.91.984-4.422.984c-2.43 0-4.508-.555-6.235-1.656q-2.595-1.669-3.984-4.61c-.93-1.968-1.39-4.234-1.39-6.796q0-4.437 1.406-7.625c.945-2.133 2.273-3.782 3.984-4.938q2.577-1.748 6.016-1.75m0 0" style="stroke:none" transform="translate(154.437 63.172)"/></g><g style="fill:#000;fill-opacity:1"><path d="M8.625.36Q6.561.358 5.047-.423 3.53-1.202 2.75-2.609q-.783-1.42-.781-3.297 0-2.218 1.031-3.625a7.75 7.75 0 0 1 2.64-2.266 21.7 21.7 0 0 1 3.407-1.437q1.794-.575 3.406-1.11c1.07-.351 1.953-.765 2.64-1.234q1.046-.704 1.048-1.875v-3.125q-.001-2.107-.641-3.219-.627-1.108-1.687-1.484a6.9 6.9 0 0 0-2.36-.39q-1.267 0-2.703.358-1.441.363-2.297 1.47c.633.136 1.188.476 1.656 1.015.477.531.72 1.215.72 2.047 0 .843-.274 1.511-.813 2q-.814.736-2.063.734-1.471 0-2.156-.937a3.5 3.5 0 0 1-.672-2.094q0-1.312.656-2.11a8 8 0 0 1 1.672-1.515q1.156-.81 2.984-1.39 1.84-.578 4.172-.579 2.063.002 3.516.485 1.466.47 2.438 1.375a5.8 5.8 0 0 1 1.703 2.953q.406 1.735.406 4.156v14.016q0 1.265.375 1.828.374.549 1.187.547.56 0 1.063-.25.499-.249 1.203-.813l.563.86Q23.998-.7 23.03-.173q-.956.53-2.562.531-1.455-.001-2.422-.5a3.32 3.32 0 0 1-1.438-1.5q-.468-.983-.468-2.5-1.36 2.285-3.266 3.391Q10.981.362 8.625.36m1.813-2.016q1.651 0 3.093-.953 1.436-.969 2.61-2.891v-9.875q-.61.862-1.782 1.438a43 43 0 0 1-2.515 1.156c-.906.386-1.774.84-2.594 1.36a6.6 6.6 0 0 0-2.047 2.046q-.797 1.254-.797 3.281 0 2.016 1.078 3.235 1.09 1.205 2.954 1.203m0 0" style="stroke:none" transform="translate(179.947 63.172)"/></g><g style="fill:#000;fill-opacity:1"><path d="M9.484-39.531v34.844c0 1.406.29 2.367.875 2.875q.891.75 2.954.75V0q-.863-.045-2.61-.125a80 80 0 0 0-3.5-.078q-1.705 0-3.469.078-1.77.08-2.625.125v-1.062q2.06 0 2.938-.75c.594-.508.89-1.47.89-2.875v-28.797q-.002-2.264-.812-3.344c-.531-.727-1.54-1.094-3.016-1.094v-1.047q1.607.14 3.125.14c.977 0 1.91-.054 2.797-.171q1.341-.17 2.453-.531m0 0" style="stroke:none" transform="translate(205.054 63.172)"/></g><g style="fill:#000;fill-opacity:1"><path d="M9.578-34.344v8.422h7.469v1.016H9.578v19.515q-.001 2.362.86 3.329.856.954 2.374.953 1.499.001 2.61-1.235 1.107-1.231 1.922-4.156l1.015.25q-.515 2.924-2 4.938Q14.872.703 11.797.703 10.075.701 8.969.266a5.8 5.8 0 0 1-1.953-1.22 6.4 6.4 0 0 1-1.547-2.78q-.422-1.607-.422-4.282v-16.89H.203v-1.016h4.844v-7.703q1.247-.062 2.406-.203a9.4 9.4 0 0 0 2.125-.516m0 0" style="stroke:none" transform="translate(219.472 63.172)"/></g><g style="fill:#000;fill-opacity:1"><path d="M9.375-39.484v18.859q1.313-3.422 3.656-4.734 2.344-1.313 4.922-1.313 1.905.001 3.188.5 1.295.503 2.156 1.422.95 1.003 1.36 2.516.405 1.516.406 4.078v13.468q-.002 2.113.875 2.875.89.75 2.953.75V0q-.862-.045-2.625-.125-1.77-.076-3.422-.078c-1.117 0-2.203.027-3.266.078q-1.582.08-2.39.125v-1.062q1.827 0 2.578-.75c.5-.508.75-1.47.75-2.875v-14.579q-.002-1.56-.25-2.875-.251-1.312-1.141-2.109-.878-.811-2.687-.812-2.062 0-3.657 1.171c-1.062.774-1.898 1.844-2.5 3.22q-.907 2.061-.906 4.733v11.25q0 2.113.75 2.875.762.75 2.578.75V0q-.797-.045-2.39-.125a68 68 0 0 0-3.25-.078 80 80 0 0 0-3.438.078c-1.18.055-2.047.094-2.61.125v-1.062c1.376 0 2.352-.25 2.938-.75.594-.508.89-1.47.89-2.875v-28.75c0-1.508-.273-2.626-.812-3.344C3.5-37.5 2.492-37.86 1.016-37.86v-1.063q1.606.14 3.125.14c.968 0 1.894-.054 2.78-.171q1.342-.17 2.454-.531m0 0" style="stroke:none" transform="translate(237.32 63.172)"/></g><g style="fill:#000;fill-opacity:1"><path d="M14.063-26.672q1.624.001 3.124.406a9.5 9.5 0 0 1 2.735 1.203q1.153.767 1.75 1.75c.406.649.61 1.36.61 2.141q0 1.36-.75 2.094-.75.72-1.923.719-1.112 0-1.937-.657c-.555-.437-.828-1.054-.828-1.859q-.001-1.155.625-1.86.622-.715 1.484-.906-.504-.919-1.781-1.515a6.3 6.3 0 0 0-2.75-.61q-1.266 0-2.531.61-1.253.596-2.313 1.984-1.064 1.393-1.719 3.781-.656 2.392-.656 5.985-.002 4.439 1.016 7.062 1.012 2.613 2.64 3.75a6.25 6.25 0 0 0 3.61 1.125 7.7 7.7 0 0 0 2.672-.5c.906-.332 1.757-.875 2.562-1.625q1.218-1.139 2.078-3.062l.953.36q-.502 1.608-1.656 3.25-1.158 1.64-3.031 2.702Q16.186.702 13.469.703 10.342.701 7.813-.907c-1.68-1.07-3.016-2.609-4.016-4.609q-1.486-3-1.485-7.14c0-2.758.493-5.188 1.485-7.281q1.5-3.154 4.172-4.938c1.781-1.195 3.812-1.797 6.094-1.797m0 0" style="stroke:none" transform="translate(266.964 63.172)"/></g><g style="fill:#000;fill-opacity:1"><path d="M8.625.36Q6.561.358 5.047-.423 3.53-1.202 2.75-2.609q-.783-1.42-.781-3.297 0-2.218 1.031-3.625a7.75 7.75 0 0 1 2.64-2.266 21.7 21.7 0 0 1 3.407-1.437q1.794-.575 3.406-1.11c1.07-.351 1.953-.765 2.64-1.234q1.046-.704 1.048-1.875v-3.125q-.001-2.107-.641-3.219-.627-1.108-1.687-1.484a6.9 6.9 0 0 0-2.36-.39q-1.267 0-2.703.358-1.441.363-2.297 1.47c.633.136 1.188.476 1.656 1.015.477.531.72 1.215.72 2.047 0 .843-.274 1.511-.813 2q-.814.736-2.063.734-1.471 0-2.156-.937a3.5 3.5 0 0 1-.672-2.094q0-1.312.656-2.11a8 8 0 0 1 1.672-1.515q1.156-.81 2.984-1.39 1.84-.578 4.172-.579 2.063.002 3.516.485 1.466.47 2.438 1.375a5.8 5.8 0 0 1 1.703 2.953q.406 1.735.406 4.156v14.016q0 1.265.375 1.828.374.549 1.187.547.56 0 1.063-.25.499-.249 1.203-.813l.563.86Q23.998-.7 23.03-.173q-.956.53-2.562.531-1.455-.001-2.422-.5a3.32 3.32 0 0 1-1.438-1.5q-.468-.983-.468-2.5-1.36 2.285-3.266 3.391Q10.981.362 8.625.36m1.813-2.016q1.651 0 3.093-.953 1.436-.969 2.61-2.891v-9.875q-.61.862-1.782 1.438a43 43 0 0 1-2.515 1.156c-.906.386-1.774.84-2.594 1.36a6.6 6.6 0 0 0-2.047 2.046q-.797 1.254-.797 3.281 0 2.016 1.078 3.235 1.09 1.205 2.954 1.203m0 0" style="stroke:none" transform="translate(291.465 63.172)"/></g><g style="fill:#000;fill-opacity:1"><path d="M17.14-26.672q1.36 0 2.391.563c.696.367 1.239.843 1.625 1.437q.576.878.578 1.985a3.4 3.4 0 0 1-.78 2.218q-.784.954-2.095.953a2.84 2.84 0 0 1-1.875-.672q-.796-.686-.797-1.953-.001-.949.532-1.625c.351-.457.75-.82 1.187-1.093-.242-.332-.593-.5-1.062-.5q-1.563 0-2.875.937a8.05 8.05 0 0 0-2.219 2.39q-.907 1.454-1.422 3.095c-.336 1.093-.5 2.109-.5 3.046v10.704q-.002 2.472 1.438 3.296 1.434.83 3.906.829V0l-3.281-.125Q9.78-.201 7.406-.203 5.701-.203 4-.125 2.312-.045 1.469 0v-1.062c1.375 0 2.351-.25 2.937-.75.594-.508.89-1.47.89-2.875V-20.47q-.002-2.264-.812-3.343c-.53-.727-1.539-1.094-3.015-1.094v-1.063q1.606.158 3.125.157 1.451.002 2.781-.172 1.34-.186 2.453-.532v6.297q.562-1.464 1.594-2.953a9.8 9.8 0 0 1 2.484-2.484 5.56 5.56 0 0 1 3.235-1.016m0 0" style="stroke:none" transform="translate(316.572 63.172)"/></g><g style="fill:#000;fill-opacity:1"><path d="M13.719-26.672q4.436 0 6.922 2.703 2.498 2.69 2.5 8.39H5.344l-.047-.952h13q.107-2.484-.406-4.563-.502-2.092-1.578-3.36-1.08-1.265-2.797-1.265-2.332.002-4.125 2.328-1.784 2.314-2.125 7.36l.14.203a28 28 0 0 0-.156 1.656q-.047.91-.047 1.813c0 2.293.367 4.261 1.11 5.906q1.107 2.471 2.906 3.766 1.793 1.281 3.703 1.28a8.5 8.5 0 0 0 2.875-.484q1.357-.48 2.515-1.593 1.172-1.107 2.032-2.97l1 .407q-.549 1.66-1.813 3.219-1.265 1.563-3.187 2.547-1.91.984-4.422.984c-2.43 0-4.508-.555-6.235-1.656q-2.595-1.669-3.984-4.61c-.93-1.968-1.39-4.234-1.39-6.796q0-4.437 1.406-7.625c.945-2.133 2.273-3.782 3.984-4.938q2.577-1.748 6.016-1.75m0 0" style="stroke:none" transform="translate(339.007 63.172)"/></g><g style="fill:#000;fill-opacity:1"><path d="M4.5-9.89q1.716 0 2.64.75.938.751.938 2.093 0 1.547-.937 2.25c-.625.469-1.602.703-2.922.703h-1.36V0H1.11v-9.89Zm-.484 4.296q1.216.001 1.718-.343.499-.359.5-1.063c0-.914-.687-1.375-2.062-1.375H2.859v2.781Zm0 0" style="stroke:none" transform="translate(12.68 93.262)"/></g><g style="fill:#000;fill-opacity:1"><path d="M5.828-9.89 10.078 0h-2l-.922-2.266H2.86L1.97 0H0l4.297-9.89Zm-2.36 6.124h3.063l-1.515-4.03Zm0 0" style="stroke:none" transform="translate(60.888 93.262)"/></g><g style="fill:#000;fill-opacity:1"><path d="M4.594-9.89q1.779 0 2.703.734.937.738.937 2.11-.001 1.11-.625 1.812-.628.704-1.671.859L8.563 0H6.437l-2.28-4.187H2.858V0H1.11v-9.89Zm-.282 4.187q1.154.001 1.61-.344.468-.34.469-1.016-.002-1.312-1.953-1.312H2.859v2.672Zm0 0" style="stroke:none" transform="translate(110.652 93.262)"/></g><g style="fill:#000;fill-opacity:1"><path d="M7.922-9.89v1.593H4.89V0H3.125v-8.297H.094V-9.89Zm0 0" style="stroke:none" transform="translate(159.126 93.262)"/></g><g style="fill:#000;fill-opacity:1"><path d="m3.438-9.89 4.796 7.343h.016V-9.89h1.766V0H7.78L2.89-7.578h-.032V0H1.11v-9.89Zm0 0" style="stroke:none" transform="translate(206.815 93.262)"/></g><g style="fill:#000;fill-opacity:1"><path d="M7.656-9.89v1.593H2.86v2.438h4.547v1.578H2.86v2.687h5.047V0H1.11v-9.89Zm0 0" style="stroke:none" transform="translate(257.604 93.262)"/></g><g style="fill:#000;fill-opacity:1"><path d="M4.594-9.89q1.779 0 2.703.734.937.738.937 2.11-.001 1.11-.625 1.812-.628.704-1.671.859L8.563 0H6.437l-2.28-4.187H2.858V0H1.11v-9.89Zm-.282 4.187q1.154.001 1.61-.344.468-.34.469-1.016-.002-1.312-1.953-1.312H2.859v2.672Zm0 0" style="stroke:none" transform="translate(305.812 93.262)"/></g><g style="fill:#000;fill-opacity:1"><path d="M4.406-10.14q1.716.001 2.828 1.015l-1.28 1.36q-.582-.781-1.735-.782c-.5 0-.899.117-1.188.344q-.438.346-.437.922 0 .503.39.812.406.298 1.157.532 1.452.455 1.984.812.543.364.86.89.31.533.312 1.329-.002 1.44-1 2.297Q5.31.251 3.75.25C2.29.25 1.188-.195.438-1.094l1.328-1.281q.311.485.828.766c.344.18.719.265 1.125.265q.763 0 1.25-.39.482-.405.484-.97-.001-.544-.406-.874-.41-.342-1.375-.64-1.235-.389-1.797-.75a2.54 2.54 0 0 1-.844-.891Q.751-6.39.75-7.156c0-.895.336-1.614 1.016-2.157q1.012-.826 2.64-.828m0 0" style="stroke:none" transform="translate(354.285 93.262)"/></g></svg>