<svg xmlns="http://www.w3.org/2000/svg" width="500" height="500" viewBox="0 0 375 375"><defs><clipPath id="a"><path d="M95.43 0h184.472v258H95.43Zm0 0"/></clipPath></defs><g style="fill:#000;fill-opacity:1"><path d="M26.578 0v-1.156q1.968-.107 2.969-.453Q30.56-1.968 30.907-3q.358-1.043.359-3.125v-28.656q0-2.14-.36-3.14-.345-1.016-1.36-1.392c-.667-.257-1.655-.406-2.968-.437v-1.156q1.326.066 3.344.125 2.028.047 4 .047c1.5 0 2.898-.016 4.203-.047a142 142 0 0 0 3.188-.125v1.156c-1.313.031-2.31.18-2.985.438a2.15 2.15 0 0 0-1.344 1.39q-.344 1.002-.343 3.14v28.657Q36.64-4.043 36.984-3q.341 1.032 1.344 1.39 1.015.347 2.984.454V0a49 49 0 0 0-3.187-.14 280 280 0 0 0-8.203 0q-2.018.035-3.344.14M2.422 0v-1.156q1.967-.107 2.969-.453Q6.404-1.968 6.75-3q.359-1.043.36-3.125v-28.656q-.002-2.14-.36-3.14-.346-1.016-1.36-1.392c-.667-.257-1.656-.406-2.968-.437v-1.156q1.216.066 3.172.125a179 179 0 0 0 8.234 0q1.999-.06 3.328-.125v1.156c-1.304.031-2.293.18-2.968.438q-1.02.376-1.36 1.39-.344 1.002-.344 3.14v28.657q0 2.082.344 3.125.34 1.032 1.36 1.39 1.012.347 2.968.454V0a56 56 0 0 0-3.328-.14 271 271 0 0 0-8.234 0A48 48 0 0 0 2.422 0m8.031-20v-1.14h22.828V-20Zm0 0" style="stroke:none" transform="translate(45.253 334.944)"/></g><g style="fill:#000;fill-opacity:1"><path d="M15.719-30.562q5.076 0 7.937 3.093 2.86 3.082 2.86 9.61H6.125l-.062-1.094h14.906q.122-2.826-.453-5.219-.58-2.402-1.828-3.844-1.236-1.452-3.204-1.453-2.657.001-4.718 2.657-2.051 2.66-2.438 8.437l.172.234q-.129.863-.187 1.907a46 46 0 0 0-.047 2.078q0 3.924 1.265 6.765Q10.81-4.56 12.86-3.094q2.047 1.47 4.25 1.469 1.735.002 3.282-.547 1.56-.546 2.89-1.812c.883-.852 1.657-1.989 2.313-3.407l1.156.454q-.644 1.91-2.078 3.703-1.44 1.798-3.64 2.922Q18.84.813 15.952.813 11.78.812 8.797-1.094 5.827-3 4.234-6.375q-1.58-3.387-1.578-7.781-.001-5.076 1.61-8.75 1.622-3.67 4.562-5.657 2.954-1.999 6.89-2m0 0" style="stroke:none" transform="translate(88.986 334.944)"/></g><g style="fill:#000;fill-opacity:1"><path d="M9.875.406q-2.36 0-4.094-.89C4.625-1.086 3.742-1.926 3.141-3Q2.25-4.622 2.25-6.766q0-2.53 1.188-4.14a8.85 8.85 0 0 1 3.03-2.61 24 24 0 0 1 3.907-1.64q2.045-.67 3.89-1.281 1.859-.61 3.032-1.407 1.185-.809 1.187-2.156v-3.578q-.002-2.42-.718-3.688c-.48-.851-1.125-1.422-1.938-1.703q-1.207-.435-2.719-.437-1.44 0-3.093.406-1.642.394-2.625 1.672 1.108.235 1.906 1.156.81.924.812 2.36 0 1.453-.921 2.296c-.618.555-1.407.828-2.376.828-1.117 0-1.933-.351-2.453-1.062a4 4 0 0 1-.78-2.406q0-1.498.75-2.422c.5-.613 1.132-1.192 1.905-1.735.883-.613 2.032-1.14 3.438-1.578 1.406-.445 2.992-.672 4.765-.672q2.373.001 4.047.547 1.687.552 2.782 1.594a6.4 6.4 0 0 1 1.953 3.375q.468 1.987.468 4.766V-4.22q0 1.441.438 2.078.434.643 1.36.641a2.7 2.7 0 0 0 1.203-.281q.574-.293 1.39-.938l.64.985a20 20 0 0 1-2.312 1.53q-1.095.61-2.953.61-1.676-.002-2.765-.578a3.78 3.78 0 0 1-1.657-1.703q-.549-1.125-.547-2.86c-1.03 1.731-2.273 3.024-3.718 3.876Q12.593.406 9.875.406m2.078-2.312A6.3 6.3 0 0 0 15.516-3q1.64-1.106 2.968-3.297v-11.328q-.69.986-2.015 1.656-1.332.659-2.89 1.328-1.567.659-2.985 1.563a7.45 7.45 0 0 0-2.328 2.344c-.618.96-.922 2.21-.922 3.75q-.001 2.297 1.234 3.687c.832.93 1.957 1.39 3.375 1.39m0 0" style="stroke:none" transform="translate(118.218 334.944)"/></g><g style="fill:#000;fill-opacity:1"><path d="M10.86-45.297v39.922c0 1.617.335 2.715 1.015 3.297q1.013.86 3.375.86V0q-.985-.06-2.984-.14a85 85 0 0 0-8 0q-2.016.08-3 .14v-1.219q2.373.001 3.375-.86 1.014-.871 1.015-3.296v-32.984q0-2.608-.922-3.844-.925-1.249-3.468-1.25v-1.219q1.858.188 3.593.188 1.67 0 3.204-.203a15.6 15.6 0 0 0 2.796-.61m0 0" style="stroke:none" transform="translate(146.988 334.944)"/></g><g style="fill:#000;fill-opacity:1"><path d="M10.984-39.344v9.64h8.547v1.157h-8.547v22.36c0 1.812.32 3.09.97 3.828q.983 1.094 2.718 1.093 1.734.001 3-1.421 1.277-1.42 2.203-4.766l1.156.281q-.58 3.363-2.281 5.672Q17.044.812 13.516.813q-1.957-.001-3.235-.5a6.8 6.8 0 0 1-2.25-1.407Q6.765-2.419 6.266-4.266 5.78-6.123 5.78-9.187v-19.36H.234v-1.156h5.547v-8.844a28 28 0 0 0 2.766-.219 11 11 0 0 0 2.437-.578m0 0" style="stroke:none" transform="translate(163.51 334.944)"/></g><g style="fill:#000;fill-opacity:1"><path d="M10.75-45.25v21.625q1.5-3.937 4.188-5.437 2.684-1.5 5.624-1.5 2.203.002 3.672.578 1.482.579 2.453 1.609 1.107 1.158 1.563 2.89.47 1.736.469 4.688v15.422q-.001 2.425 1 3.297 1.012.86 3.39.86V0a176 176 0 0 0-3.015-.14 85 85 0 0 0-3.922-.094 73 73 0 0 0-3.735.093q-1.814.082-2.734.141v-1.219q2.075.001 2.938-.86.874-.871.875-3.296v-16.703c0-1.188-.102-2.281-.297-3.281q-.282-1.512-1.297-2.438-1.003-.92-3.078-.922c-1.586 0-2.985.446-4.203 1.328q-1.816 1.33-2.86 3.703-1.03 2.363-1.031 5.422v12.891q-.001 2.425.86 3.297.872.86 2.953.86V0q-.925-.06-2.75-.14a72 72 0 0 0-3.72-.094q-1.91 0-3.937.093-2.014.082-3 .141v-1.219q2.373.001 3.375-.86 1.015-.871 1.016-3.296v-32.937q-.001-2.591-.922-3.829-.925-1.249-3.469-1.25v-1.218a38 38 0 0 0 3.578.172q1.67 0 3.204-.204a16 16 0 0 0 2.812-.609m0 0" style="stroke:none" transform="translate(183.961 334.944)"/></g><g style="fill:#000;fill-opacity:1"><path d="M16.125-30.562q1.842 0 3.578.468 1.732.456 3.125 1.375 1.325.877 2.016 2 .702 1.127.703 2.453-.001 1.564-.875 2.407-.862.83-2.188.828-1.283 0-2.234-.75-.954-.748-.953-2.14-.001-1.327.719-2.142.73-.808 1.703-1.03-.581-1.044-2.047-1.735a7.2 7.2 0 0 0-3.14-.703q-1.454 0-2.907.703-1.439.689-2.656 2.281c-.805 1.055-1.453 2.496-1.953 4.328q-.75 2.754-.75 6.844c0 3.398.382 6.094 1.156 8.094q1.156 3 3.031 4.312a7.08 7.08 0 0 0 4.125 1.297q1.5.001 3.063-.578 1.558-.575 2.953-1.875 1.39-1.311 2.375-3.5l1.093.406q-.58 1.845-1.906 3.719-1.33 1.875-3.468 3.094Q18.544.813 15.422.813c-2.387 0-4.543-.618-6.469-1.844Q6.06-2.89 4.36-6.328 2.655-9.764 2.656-14.5q0-4.734 1.703-8.344 1.7-3.62 4.766-5.672 3.061-2.046 7-2.047m0 0" style="stroke:none" transform="translate(217.93 334.944)"/></g><g style="fill:#000;fill-opacity:1"><path d="M9.875.406q-2.36 0-4.094-.89C4.625-1.086 3.742-1.926 3.141-3Q2.25-4.622 2.25-6.766q0-2.53 1.188-4.14a8.85 8.85 0 0 1 3.03-2.61 24 24 0 0 1 3.907-1.64q2.045-.67 3.89-1.281 1.859-.61 3.032-1.407 1.185-.809 1.187-2.156v-3.578q-.002-2.42-.718-3.688c-.48-.851-1.125-1.422-1.938-1.703q-1.207-.435-2.719-.437-1.44 0-3.093.406-1.642.394-2.625 1.672 1.108.235 1.906 1.156.81.924.812 2.36 0 1.453-.921 2.296c-.618.555-1.407.828-2.376.828-1.117 0-1.933-.351-2.453-1.062a4 4 0 0 1-.78-2.406q0-1.498.75-2.422c.5-.613 1.132-1.192 1.905-1.735.883-.613 2.032-1.14 3.438-1.578 1.406-.445 2.992-.672 4.765-.672q2.373.001 4.047.547 1.687.552 2.782 1.594a6.4 6.4 0 0 1 1.953 3.375q.468 1.987.468 4.766V-4.22q0 1.441.438 2.078.434.643 1.36.641a2.7 2.7 0 0 0 1.203-.281q.574-.293 1.39-.938l.64.985a20 20 0 0 1-2.312 1.53q-1.095.61-2.953.61-1.676-.002-2.765-.578a3.78 3.78 0 0 1-1.657-1.703q-.549-1.125-.547-2.86c-1.03 1.731-2.273 3.024-3.718 3.876Q12.593.406 9.875.406m2.078-2.312A6.3 6.3 0 0 0 15.516-3q1.64-1.106 2.968-3.297v-11.328q-.69.986-2.015 1.656-1.332.659-2.89 1.328-1.567.659-2.985 1.563a7.45 7.45 0 0 0-2.328 2.344c-.618.96-.922 2.21-.922 3.75q-.001 2.297 1.234 3.687c.832.93 1.957 1.39 3.375 1.39m0 0" style="stroke:none" transform="translate(246.007 334.944)"/></g><g style="fill:#000;fill-opacity:1"><path d="M19.64-30.562q1.561 0 2.75.64 1.187.627 1.844 1.64A4.07 4.07 0 0 1 24.906-26q-.002 1.44-.906 2.547-.89 1.095-2.39 1.094a3.2 3.2 0 0 1-2.141-.782q-.924-.778-.922-2.218 0-1.108.61-1.891.609-.779 1.359-1.234-.41-.576-1.22-.578-1.797 0-3.296 1.078a9.5 9.5 0 0 0-2.547 2.734 15.2 15.2 0 0 0-1.61 3.563c-.386 1.25-.577 2.414-.577 3.484v12.25q0 2.831 1.64 3.781 1.654.954 4.485.953V0q-1.33-.06-3.766-.14A133 133 0 0 0 8.5-.235c-1.312 0-2.617.03-3.906.093A185 185 0 0 0 1.672 0v-1.219q2.373.001 3.375-.86 1.015-.871 1.016-3.296v-18.078q-.002-2.608-.922-3.844-.926-1.249-3.47-1.25v-1.203q1.86.174 3.595.172 1.669 0 3.203-.203a15.6 15.6 0 0 0 2.797-.61v7.22q.638-1.671 1.812-3.376a11.3 11.3 0 0 1 2.86-2.86 6.4 6.4 0 0 1 3.703-1.155m0 0" style="stroke:none" transform="translate(274.777 334.944)"/></g><g style="fill:#000;fill-opacity:1"><path d="M15.719-30.562q5.076 0 7.937 3.093 2.86 3.082 2.86 9.61H6.125l-.062-1.094h14.906q.122-2.826-.453-5.219-.58-2.402-1.828-3.844-1.236-1.452-3.204-1.453-2.657.001-4.718 2.657-2.051 2.66-2.438 8.437l.172.234q-.129.863-.187 1.907a46 46 0 0 0-.047 2.078q0 3.924 1.265 6.765Q10.81-4.56 12.86-3.094q2.047 1.47 4.25 1.469 1.735.002 3.282-.547 1.56-.546 2.89-1.812c.883-.852 1.657-1.989 2.313-3.407l1.156.454q-.644 1.91-2.078 3.703-1.44 1.798-3.64 2.922Q18.84.813 15.952.813 11.78.812 8.797-1.094 5.827-3 4.234-6.375q-1.58-3.387-1.578-7.781-.001-5.076 1.61-8.75 1.622-3.67 4.562-5.657 2.954-1.999 6.89-2m0 0" style="stroke:none" transform="translate(300.485 334.944)"/></g><g style="fill:#000;fill-opacity:1"><path d="M4.828-10.61c1.227 0 2.172.274 2.828.813.664.531 1 1.277 1 2.235 0 1.105-.336 1.914-1 2.421q-1.002.75-3.125.75H3.078V0h-1.89v-10.61Zm-.531 4.594q1.325 0 1.86-.375c.35-.25.53-.617.53-1.109q0-1.483-2.203-1.484H3.078v2.968Zm0 0" style="stroke:none" transform="translate(47.626 369.344)"/></g><g style="fill:#000;fill-opacity:1"><path d="M6.25-10.61 10.813 0H8.656l-.984-2.422H3.078L2.11 0H0l4.61-10.61ZM3.719-4.046h3.297L5.375-8.359Zm0 0" style="stroke:none" transform="translate(85.766 369.344)"/></g><g style="fill:#000;fill-opacity:1"><path d="M4.938-10.61q1.887 0 2.89.797.998.786 1 2.25-.002 1.19-.672 1.954-.674.75-1.781.922L9.188 0H6.906L4.453-4.5H3.078V0h-1.89v-10.61Zm-.313 4.5c.82 0 1.395-.117 1.719-.359.332-.25.5-.617.5-1.11 0-.937-.696-1.405-2.078-1.405H3.078v2.875Zm0 0" style="stroke:none" transform="translate(125.567 369.344)"/></g><g style="fill:#000;fill-opacity:1"><path d="M8.5-10.61v1.704H5.25V0H3.36v-8.906H.11v-1.703Zm0 0" style="stroke:none" transform="translate(163.994 369.344)"/></g><g style="fill:#000;fill-opacity:1"><path d="m3.688-10.61 5.14 7.876h.031v-7.875h1.891V0H8.344L3.109-8.14h-.03V0H1.186v-10.61Zm0 0" style="stroke:none" transform="translate(201.59 369.344)"/></g><g style="fill:#000;fill-opacity:1"><path d="M8.219-10.61v1.704h-5.14v2.61h4.858v1.718H3.079v2.875h5.406V0H1.188v-10.61Zm0 0" style="stroke:none" transform="translate(242.51 369.344)"/></g><g style="fill:#000;fill-opacity:1"><path d="M4.938-10.61q1.887 0 2.89.797.998.786 1 2.25-.002 1.19-.672 1.954-.674.75-1.781.922L9.188 0H6.906L4.453-4.5H3.078V0h-1.89v-10.61Zm-.313 4.5c.82 0 1.395-.117 1.719-.359.332-.25.5-.617.5-1.11 0-.937-.696-1.405-2.078-1.405H3.078v2.875Zm0 0" style="stroke:none" transform="translate(280.649 369.344)"/></g><g style="fill:#000;fill-opacity:1"><path d="M4.719-10.875q1.857.002 3.047 1.094L6.39-8.328q-.629-.844-1.86-.844-.813 0-1.281.375-.469.363-.469.985 0 .548.422.875.436.315 1.235.562 1.576.487 2.14.875c.383.262.688.586.906.969q.342.564.344 1.422 0 1.534-1.078 2.453-1.065.924-2.734.922Q1.67.268.469-1.172L1.89-2.547q.34.535.89.828.561.282 1.203.282.827 0 1.344-.422.516-.434.516-1.032c0-.394-.149-.71-.438-.953q-.439-.358-1.468-.687Q2.608-4.935 2-5.328a2.5 2.5 0 0 1-.89-.953q-.299-.56-.298-1.39 0-1.436 1.079-2.313c.726-.594 1.672-.891 2.828-.891m0 0" style="stroke:none" transform="translate(319.076 369.344)"/></g><g clip-path="url(#a)"><path d="M95.43 0h184.472v257.977H95.43Zm0 0" style="stroke:none;fill-rule:nonzero;fill:#000;fill-opacity:1"/></g><g style="fill:#fff;fill-opacity:1"><path d="M34.781 0v-1.516q2.421-.151 3.64-.609c.813-.3 1.352-.906 1.626-1.812q.422-1.373.422-4.11v-37.672q0-2.812-.422-4.14-.41-1.326-1.656-1.813-1.255-.497-3.61-.578v-1.516q2.046.082 5.344.157 3.31.08 6.578.078 3.48.002 6.563-.078 3.074-.076 4.984-.157v1.516q-2.438.081-3.687.578-1.254.487-1.641 1.813-.375 1.328-.375 4.14v37.672q0 2.737.422 4.11.42 1.36 1.625 1.812 1.218.457 3.656.61V0q-1.91-.153-4.984-.187a465 465 0 0 0-13.14 0q-3.3.034-5.345.187M2.578 0v-1.516q2.436-.151 3.64-.609 1.22-.451 1.641-1.812.422-1.373.422-4.11v-37.672q0-2.812-.422-4.14c-.28-.883-.84-1.489-1.671-1.813q-1.255-.497-3.61-.578v-1.516a315 315 0 0 0 5.125.157q3.154.08 6.875.078 3.187.002 6.297-.078 3.122-.076 5.172-.157v1.516q-2.439.081-3.688.578-1.253.487-1.64 1.813-.375 1.328-.375 4.14v37.672q0 2.737.422 4.11.419 1.36 1.625 1.812 1.218.457 3.656.61V0q-2.05-.153-5.172-.187a465 465 0 0 0-13.172 0C5.61-.164 3.898-.102 2.578 0m12.844-26.281v-1.516h29.984v1.516Zm0 0" style="stroke:none" transform="translate(113.245 210.043)"/></g><g style="fill:#fff;fill-opacity:1"><path d="M67.89-53.766v1.516q-2.436.081-3.656.578c-.804.324-1.343.93-1.625 1.813q-.421 1.328-.422 4.14v37.672q0 2.737.422 4.11c.282.906.82 1.511 1.625 1.812q1.22.457 3.657.61V0q-2.126-.153-5.36-.187a469 469 0 0 0-13.406 0q-3.188.034-5.156.187v-1.516q2.577-.151 3.906-.609 1.325-.451 1.781-1.812.47-1.373.469-4.11v-41.078h.531L31.813.078h-1.204L10.094-48.828v36.375c0 2.781.148 4.922.453 6.422q.468 2.238 2.015 3.187 1.56.94 4.907 1.328V0q-1.455-.153-3.813-.187a220 220 0 0 0-4.39-.047q-1.751 0-3.578.047Q3.873-.153 2.656 0v-1.516q2.436-.387 3.64-1.296 1.22-.904 1.641-2.985.422-2.092.422-5.75v-34.172q0-2.812-.421-4.14-.423-1.326-1.672-1.813-1.255-.497-3.61-.578v-1.516c.813.055 1.82.106 3.032.157a80 80 0 0 0 3.578.078 246 246 0 0 0 6.406-.078 604 604 0 0 0 5.594-.157l15.937 38.5-1.89 1.75L50.578-53.53h5.39q3.34.002 6.563-.078 3.234-.076 5.36-.157m0 0" style="stroke:none" transform="translate(191.678 210.043)"/></g><path d="M-.001 1.502h100.703" style="fill:none;stroke-width:3;stroke-linecap:butt;stroke-linejoin:miter;stroke:#fff;stroke-opacity:1;stroke-miterlimit:4" transform="rotate(90 19.264 164.874)scale(.75)"/></svg>